HIERARCHY
ROOT Hips
{
 OFFSET 0.000000 0.000000 0.000000
 CHANNELS 6 Xposition Yposition Zposition Yrotation Xrotation Zrotation
 JOINT Chest
 {
  OFFSET 0.000000 9.630565 -1.070063
  CHANNELS 3 Yrotation Xrotation Zrotation
  JOINT Chest2
  {
   OFFSET 0.000000 10.515092 0.000000
   CHANNELS 3 Yrotation Xrotation Zrotation
   JOINT Chest3
   {
    OFFSET 0.000000 9.604626 -0.030425
    CHANNELS 3 Yrotation Xrotation Zrotation
    JOINT Chest4
    {
     OFFSET 0.000000 9.593896 -0.030455
     CHANNELS 3 Yrotation Xrotation Zrotation
     JOINT Neck
     {
      OFFSET 0.000000 13.488791 0.000000
      CHANNELS 3 Yrotation Xrotation Zrotation
      JOINT Head
      {
       OFFSET 0.000000 10.704499 -0.075716
       CHANNELS 3 Yrotation Xrotation Zrotation
       End Site
       {
        OFFSET 0.000000 21.416259 -0.029166
       }
      }
     }
     JOINT RightCollar
     {
      OFFSET -3.054452 7.579305 0.000000
      CHANNELS 3 Yrotation Xrotation Zrotation
      JOINT RightShoulder
      {
       OFFSET -14.776674 0.000000 0.000000
       CHANNELS 3 Yrotation Xrotation Zrotation
       JOINT RightElbow
       {
        OFFSET -30.982767 0.000000 0.000000
        CHANNELS 3 Yrotation Xrotation Zrotation
        JOINT RightWrist
        {
         OFFSET -25.330466 0.000000 0.000000
         CHANNELS 3 Yrotation Xrotation Zrotation
         JOINT RightFinger0
         {
          OFFSET -2.833226 0.000000 2.791865
          CHANNELS 3 Yrotation Xrotation Zrotation
          JOINT RightFinger01
          {
           OFFSET -3.663730 0.000000 0.000000
           CHANNELS 3 Yrotation Xrotation Zrotation
           JOINT RightFinger02
           {
            OFFSET -3.215815 0.000000 0.000000
            CHANNELS 3 Yrotation Xrotation Zrotation
            End Site
            {
             OFFSET -3.215815 0.000000 0.000000
            }
           }
          }
         }
         JOINT RightFinger1
         {
          OFFSET -9.466533 0.000000 1.251169
          CHANNELS 3 Yrotation Xrotation Zrotation
          JOINT RightFinger11
          {
           OFFSET -4.280860 0.000000 0.000000
           CHANNELS 3 Yrotation Xrotation Zrotation
           JOINT RightFinger12
           {
            OFFSET -2.336894 0.000000 0.000000
            CHANNELS 3 Yrotation Xrotation Zrotation
            End Site
            {
             OFFSET -2.099069 0.000000 0.000000
            }
           }
          }
         }
         JOINT RightFinger2
         {
          OFFSET -9.482001 0.000000 0.000000
          CHANNELS 3 Yrotation Xrotation Zrotation
          JOINT RightFinger21
          {
           OFFSET -4.684129 0.000000 0.000000
           CHANNELS 3 Yrotation Xrotation Zrotation
           JOINT RightFinger22
           {
            OFFSET -2.771185 0.000000 0.000000
            CHANNELS 3 Yrotation Xrotation Zrotation
            End Site
            {
             OFFSET -2.202471 0.000000 0.000000
            }
           }
          }
         }
         JOINT RightFinger3
         {
          OFFSET -9.119393 0.000000 -1.261509
          CHANNELS 3 Yrotation Xrotation Zrotation
          JOINT RightFinger31
          {
           OFFSET -4.446304 0.000000 0.000000
           CHANNELS 3 Yrotation Xrotation Zrotation
           JOINT RightFinger32
           {
            OFFSET -2.636761 0.000000 0.000000
            CHANNELS 3 Yrotation Xrotation Zrotation
            End Site
            {
             OFFSET -2.223152 0.000000 0.000000
            }
           }
          }
         }
         JOINT RightFinger4
         {
          OFFSET -8.375151 0.000000 -2.254173
          CHANNELS 3 Yrotation Xrotation Zrotation
          JOINT RightFinger41
          {
           OFFSET -3.712147 0.000000 0.000000
           CHANNELS 3 Yrotation Xrotation Zrotation
           JOINT RightFinger42
           {
            OFFSET -2.016347 0.000000 0.000000
            CHANNELS 3 Yrotation Xrotation Zrotation
            End Site
            {
             OFFSET -2.140430 0.000000 0.000000
            }
           }
          }
         }
        }
       }
      }
     }
     JOINT LeftCollar
     {
      OFFSET 3.054452 7.579305 0.000000
      CHANNELS 3 Yrotation Xrotation Zrotation
      JOINT LeftShoulder
      {
       OFFSET 14.776674 0.000000 0.000000
       CHANNELS 3 Yrotation Xrotation Zrotation
       JOINT LeftElbow
       {
        OFFSET 30.982767 0.000000 0.000000
        CHANNELS 3 Yrotation Xrotation Zrotation
        JOINT LeftWrist
        {
         OFFSET 25.330466 0.000000 0.000000
         CHANNELS 3 Yrotation Xrotation Zrotation
         JOINT LeftFinger0
         {
          OFFSET 2.833226 0.000000 2.791865
          CHANNELS 3 Yrotation Xrotation Zrotation
          JOINT LeftFinger01
          {
           OFFSET 3.663730 0.000000 0.000000
           CHANNELS 3 Yrotation Xrotation Zrotation
           JOINT LeftFinger02
           {
            OFFSET 3.215815 0.000000 0.000000
            CHANNELS 3 Yrotation Xrotation Zrotation
            End Site
            {
             OFFSET 3.215815 0.000000 0.000000
            }
           }
          }
         }
         JOINT LeftFinger1
         {
          OFFSET 9.466533 0.000000 1.251169
          CHANNELS 3 Yrotation Xrotation Zrotation
          JOINT LeftFinger11
          {
           OFFSET 4.280860 0.000000 0.000000
           CHANNELS 3 Yrotation Xrotation Zrotation
           JOINT LeftFinger12
           {
            OFFSET 2.336894 0.000000 0.000000
            CHANNELS 3 Yrotation Xrotation Zrotation
            End Site
            {
             OFFSET 2.099069 0.000000 0.000000
            }
           }
          }
         }
         JOINT LeftFinger2
         {
          OFFSET 9.482001 0.000000 0.000000
          CHANNELS 3 Yrotation Xrotation Zrotation
          JOINT LeftFinger21
          {
           OFFSET 4.684129 0.000000 0.000000
           CHANNELS 3 Yrotation Xrotation Zrotation
           JOINT LeftFinger22
           {
            OFFSET 2.771185 0.000000 0.000000
            CHANNELS 3 Yrotation Xrotation Zrotation
            End Site
            {
             OFFSET 2.202471 0.000000 0.000000
            }
           }
          }
         }
         JOINT LeftFinger3
         {
          OFFSET 9.119393 0.000000 -1.261509
          CHANNELS 3 Yrotation Xrotation Zrotation
          JOINT LeftFinger31
          {
           OFFSET 4.446304 0.000000 0.000000
           CHANNELS 3 Yrotation Xrotation Zrotation
           JOINT LeftFinger32
           {
            OFFSET 2.636761 0.000000 0.000000
            CHANNELS 3 Yrotation Xrotation Zrotation
            End Site
            {
             OFFSET 2.223152 0.000000 0.000000
            }
           }
          }
         }
         JOINT LeftFinger4
         {
          OFFSET 8.375151 0.000000 -2.254173
          CHANNELS 3 Yrotation Xrotation Zrotation
          JOINT LeftFinger41
          {
           OFFSET 3.712147 0.000000 0.000000
           CHANNELS 3 Yrotation Xrotation Zrotation
           JOINT LeftFinger42
           {
            OFFSET 2.016347 0.000000 0.000000
            CHANNELS 3 Yrotation Xrotation Zrotation
            End Site
            {
             OFFSET 2.140430 0.000000 0.000000
            }
           }
          }
         }
        }
       }
      }
     }
    }
   }
  }
 }
 JOINT RightHip
 {
  OFFSET -8.040601 0.075541 -0.008393
  CHANNELS 3 Yrotation Xrotation Zrotation
  JOINT RightKnee
  {
   OFFSET 0.000000 -40.488015 -0.007192
   CHANNELS 3 Yrotation Xrotation Zrotation
   JOINT RightAnkle
   {
    OFFSET 0.000000 -39.536317 -0.012122
    CHANNELS 3 Yrotation Xrotation Zrotation
    JOINT RightToe
    {
     OFFSET 0.000000 -7.815405 17.988983
     CHANNELS 3 Yrotation Xrotation Zrotation
     End Site
     {
      OFFSET 0.000000 -2.689051 7.496003
     }
    }
   }
  }
 }
 JOINT LeftHip
 {
  OFFSET 8.040601 0.073397 -0.008155
  CHANNELS 3 Yrotation Xrotation Zrotation
  JOINT LeftKnee
  {
   OFFSET 0.000000 -40.488015 -0.007192
   CHANNELS 3 Yrotation Xrotation Zrotation
   JOINT LeftAnkle
   {
    OFFSET 0.000000 -39.536317 -0.012122
    CHANNELS 3 Yrotation Xrotation Zrotation
    JOINT LeftToe
    {
     OFFSET 0.000000 -7.815405 17.988983
     CHANNELS 3 Yrotation Xrotation Zrotation
     End Site
     {
      OFFSET 0.000000 -2.689051 7.496003
     }
    }
   }
  }
 }
}
MOTION
Frames: 4
Frame Time: 0.016667
0.000000 90.408098 0.000000 0.000000 6.340192 0.000000 0.000000 -6.340192 0.000000 0.000000 -5.826342 0.000000 0.000000 -0.005910 0.000000 0.000000 5.832252 0.000000 0.000000 12.610213 0.000000 0.000000 -9.243752 0.000000 0.000000 0.000000 0.000000 0.000000 0.000000 0.000000 2.309063 0.000000 0.000000 -2.309063 0.000000 0.000000 0.000000 0.000000 0.000000 0.000000 0.000000 0.000000 0.000000 0.000000 0.000000 0.000000 0.000000 0.000000 0.000000 0.000000 0.000000 0.000000 0.000000 0.000000 0.000000 0.000000 0.000000 0.000000 0.000000 0.000000 0.000000 0.000000 0.000000 0.000000 0.000000 0.000000 0.000000 0.000000 0.000000 0.000000 0.000000 0.000000 0.000000 0.000000 0.000000 0.000000 0.000000 0.000000 0.000000 0.000000 0.000000 0.000000 0.000000 0.000000 0.000000 0.000000 0.000000 -2.309063 0.000000 0.000000 2.309063 0.000000 0.000000 0.000000 0.000000 0.000000 0.000000 0.000000 0.000000 0.000000 0.000000 0.000000 0.000000 0.000000 0.000000 0.000000 0.000000 0.000000 0.000000 0.000000 0.000000 0.000000 0.000000 0.000000 0.000000 0.000000 0.000000 0.000000 0.000000 0.000000 0.000000 0.000000 0.000000 0.000000 0.000000 0.000000 0.000000 0.000000 0.000000 0.000000 0.000000 0.000000 0.000000 0.000000 0.000000 0.000000 0.000000 0.000000 0.000000 -3.591006 0.000000 0.000000 1.872585 0.000000 0.000000 -4.621771 0.000000 0.000000 0.000000 0.000000 0.000000 -3.587706 0.000000 0.000000 1.905768 0.000000 0.000000 -4.658254 0.000000 0.000000 0.000000 0.000000
0.000000 125.000000 0.000000 84.163368 3.259931 1.573766 -1.677764 -2.158698 0.552461 -0.767265 -6.787705 0.239331 -0.762011 -0.967791 0.161435 -0.559016 5.110626 0.120284 -2.699059 16.485672 0.834133 -5.303336 -5.328444 2.501475 -8.914316 -12.031342 7.820501 7.710640 11.236701 75.485669 2.901272 7.980632 7.956518 -5.677789 0.986668 3.277083 80.978402 65.357429 58.667608 -0.000014 0.000046 7.268083 -0.000019 0.000076 -3.989019 -13.847485 7.546691 40.572610 0.000004 2.605731 0.000011 0.000003 2.605730 -0.000002 -10.677053 2.417819 38.425341 -0.146881 -0.369373 11.038285 -0.140711 -0.374935 7.023905 -13.047464 -2.469726 41.246572 -2.058891 -6.051970 9.539132 -1.951566 -6.121719 5.963236 -8.461645 -6.414870 33.431668 -3.127526 -6.057288 14.073655 -2.972452 -6.214104 8.787314 3.463495 1.753602 -14.287666 -3.351834 -0.547415 -76.268426 -5.016518 8.366747 -1.786590 6.147148 2.841538 1.089615 -85.463068 72.115869 -56.576956 0.000013 -0.000007 -10.778160 -0.000019 0.000020 -0.803057 7.159623 2.703431 -34.017120 -2.050478 3.133805 -17.568746 -1.998341 3.246453 -11.203088 2.818342 -3.659807 -56.245209 -1.650377 2.693461 -16.360304 -1.584858 2.786779 -10.370648 5.943930 -9.161672 -62.113953 0.767860 -1.692873 -12.480070 0.735802 -1.725810 -7.930443 7.930994 -14.609101 -69.609090 1.681192 -2.447995 -18.042547 1.617793 -2.552731 -11.443417 -0.000000 0.000000 0.000000 -0.000000 0.000000 0.000000 -0.000000 0.000000 0.000000 -0.000000 0.000000 0.000000 -0.000000 0.000000 0.000000 -0.000000 0.000000 0.000000 -0.000000 0.000000 0.000000 -0.000000 0.000000 0.000000
0.000000 125.000000 0.000000 84.114822 3.204326 1.599696 -1.658630 -2.154804 0.554144 -0.758846 -6.785957 0.240187 -0.753653 -0.966032 0.163146 -0.552613 5.111944 0.121588 -2.673367 16.499423 0.795219 -5.241399 -5.306137 2.419612 -8.826621 -11.881096 7.877511 7.637643 10.999263 75.327685 2.818797 7.927966 7.946311 -5.750986 0.972084 3.346605 81.359870 65.223340 59.224463 -0.000014 0.000018 7.347990 -0.000043 0.000052 -3.854347 -13.842523 7.544884 40.583209 0.000097 2.606113 0.002252 0.000200 2.606127 0.002257 -10.673204 2.418411 38.426813 -0.146110 -0.366868 11.054371 -0.139981 -0.372403 7.034145 -13.047337 -2.475714 41.267672 -2.055571 -6.054531 9.520581 -1.948378 -6.124040 5.951603 -8.437115 -6.465508 33.406901 -3.152028 -6.062615 14.161953 -2.995889 -6.221671 8.841906 3.428774 1.769600 -14.137143 -3.309843 -0.530151 -76.426062 -5.029761 8.390177 -1.802888 6.140763 2.828090 1.072852 -85.463070 72.115867 -56.576958 0.000013 -0.000007 -10.778160 -0.000019 0.000020 -0.803057 7.159623 2.703431 -34.017120 -2.050478 3.133805 -17.568746 -1.998341 3.246453 -11.203088 2.818342 -3.659807 -56.245209 -1.650377 2.693461 -16.360304 -1.584858 2.786779 -10.370648 5.943930 -9.161672 -62.113953 0.767860 -1.692873 -12.480070 0.735802 -1.725810 -7.930443 7.930994 -14.609101 -69.609091 1.681192 -2.447995 -18.042547 1.617793 -2.552731 -11.443417 -0.000000 -0.000000 -0.000000 -0.000000 -0.000000 -0.000000 -0.000000 -0.000000 -0.000000 -0.000000 -0.000000 -0.000000 -0.000000 -0.000000 -0.000000 -0.000000 -0.000000 -0.000000 -0.000000 -0.000000 -0.000000 -0.000000 -0.000000 -0.000000
0.000000 125.000000 0.000000 84.076898 3.162990 1.617349 -1.645419 -2.153201 0.555398 -0.753036 -6.785233 0.240815 -0.747883 -0.965300 0.164364 -0.548190 5.112493 0.122516 -2.644682 16.508502 0.762293 -5.176227 -5.292268 2.348037 -8.761564 -11.767380 7.932323 7.578419 10.817022 75.198849 2.755589 7.908285 7.933668 -5.790193 0.925747 3.405544 82.263971 64.806671 60.503947 0.000005 -0.000008 7.540619 0.000016 0.000060 -3.532268 -13.845529 7.541966 40.934382 0.016000 2.604201 0.352064 0.031918 2.606336 0.349434 -10.672940 2.418387 38.431181 -0.146110 -0.366866 11.054369 -0.139980 -0.372399 7.034154 -13.048848 -2.476294 41.287513 -2.053701 -6.054229 9.512792 -1.946602 -6.123610 5.946732 -8.405145 -6.539479 33.320434 -3.196761 -6.076704 14.313126 -3.038588 -6.239792 8.935027 3.404180 1.787025 -14.022168 -3.283572 -0.516948 -76.544368 -5.040256 8.407763 -1.814345 6.133236 2.814642 1.062040 -85.463348 72.115906 -56.576966 -0.000031 0.000038 -10.778182 -0.000011 0.000104 -0.803158 7.158728 2.695255 -33.993092 -2.056365 3.127894 -17.645765 -2.004914 3.241040 -11.253767 2.821517 -3.649732 -56.240819 -1.656188 2.695200 -16.401299 -1.590499 2.789088 -10.396546 5.944239 -9.161343 -62.114355 0.767881 -1.692988 -12.480054 0.735866 -1.725926 -7.930487 7.930885 -14.608326 -69.608010 1.681210 -2.447915 -18.043251 1.617820 -2.552640 -11.443851 -0.000000 0.000000 0.000000 -0.000000 0.000000 0.000000 -0.000000 0.000000 0.000000 -0.000000 0.000000 0.000000 -0.000000 0.000000 0.000000 -0.000000 0.000000 0.000000 -0.000000 0.000000 0.000000 -0.000000 0.000000 0.000000
